<?xml version="1.0" encoding="UTF-8"?>
<svg id="Livello_2" data-name="Livello 2" xmlns="http://www.w3.org/2000/svg" viewBox="0 0 187.97 62.91">
  <defs>
    <style>
      .cls-1 {
        fill: #fff;
      }

      .cls-2 {
        fill: #f9b836;
      }
    </style>
  </defs>
  <g id="Livello_1-2" data-name="Livello 1">
    <g>
      <g>
        <path class="cls-2" d="M39.25,29.36s0,0,0,0c-.09-.14-.17-.29-.29-.42h0c-1.86-1.86-4.32-2.88-6.95-2.88-5.42,0-9.83,4.41-9.83,9.83s4.41,9.83,9.83,9.83c2.53,0,4.93-.96,6.77-2.7.07-.06.26-.26.3-.31.43-.53.67-1.2.67-1.89,0-1.65-1.34-2.99-2.99-2.99-.75,0-1.46.28-2.01.78-.73.74-1.7,1.14-2.74,1.14-2.13,0-3.86-1.73-3.86-3.86s1.73-3.86,3.86-3.86c1.04,0,2.01.41,2.74,1.14.55.5,1.27.78,2.01.78,1.22,0,2.27-.7,2.75-1.83.13-.3.19-.61.22-.92-.3-.55-.48-1.16-.48-1.83ZM36.76,33.12c-.52,0-1.02-.19-1.41-.53l.12-.14-.13.13c-.89-.9-2.07-1.39-3.33-1.39-2.59,0-4.69,2.1-4.69,4.69s2.11,4.7,4.69,4.7c1.26,0,2.44-.49,3.33-1.39l.13.13-.12-.14c.39-.34.89-.52,1.41-.52,1.19,0,2.15.96,2.15,2.15,0,.59-.23,1.14-.66,1.55h0c-1.68,1.63-3.9,2.52-6.25,2.52-4.96,0-9-4.03-9-9s4.04-9,9-9c2.34,0,4.56.9,6.25,2.52.43.41.66.96.66,1.55,0,1.19-.96,2.15-2.15,2.15Z"/>
        <path class="cls-2" d="M37.64,30.04c-1.52-1.46-3.52-2.27-5.63-2.27-4.48,0-8.12,3.64-8.12,8.12s3.64,8.12,8.12,8.12c2.11,0,4.11-.81,5.63-2.27h0c.26-.24.4-.57.4-.92,0-.7-.57-1.27-1.27-1.27-.3,0-.58.1-.81.29-1.05,1.05-2.45,1.63-3.94,1.63-3.07,0-5.57-2.5-5.57-5.57s2.5-5.57,5.57-5.57c1.49,0,2.89.58,3.94,1.63.23.19.51.29.81.29.7,0,1.27-.57,1.27-1.27,0-.35-.14-.68-.4-.92h0ZM37.14,31.33c-.17.17-.45.17-.62,0-1.21-1.2-2.81-1.85-4.51-1.85-3.53,0-6.41,2.87-6.41,6.41s2.87,6.41,6.41,6.41c1.7,0,3.3-.66,4.51-1.85.17-.17.45-.17.62,0,.17.17.17.45,0,.62-1.37,1.36-3.19,2.11-5.12,2.11-4.02,0-7.28-3.27-7.28-7.29s3.27-7.29,7.28-7.29c1.93,0,3.75.75,5.12,2.11.17.17.17.45,0,.62Z"/>
        <path class="cls-2" d="M5.02,29.36c0,.7.57,1.27,1.27,1.27h2.33v-.83h-2.33c-.24,0-.44-.2-.44-.44s.2-.44.44-.44h2.35c.03-.29.1-.57.2-.83h-2.55c-.7,0-1.27.57-1.27,1.27Z"/>
        <path class="cls-2" d="M21.07,29.36c0-.7-.57-1.27-1.27-1.27h-2.88c-.11.25-.21.53-.29.83h3.16c.24,0,.44.2.44.44s-.2.44-.44.44h-3.34c-.04.26-.07.54-.09.83h3.43c.7,0,1.27-.57,1.27-1.27Z"/>
        <path class="cls-2" d="M6.17,26.38c-1.6.06-2.86,1.37-2.86,2.98s1.34,2.98,2.98,2.98h2.34v-.83h-2.34c-1.18,0-2.15-.96-2.15-2.15s.96-2.15,2.15-2.15h2.98c.2-.32.44-.6.69-.83h-3.79Z"/>
        <path class="cls-2" d="M22.78,29.36c0-1.7-1.26-2.98-2.93-2.99h-.04c-.92,0-1.7.16-2.32.84h2.31c1.18,0,2.15.96,2.15,2.15s-.96,2.15-2.15,2.15h-3.46v.83h3.58c1.6-.06,2.86-1.37,2.86-2.98Z"/>
        <path class="cls-2" d="M56.67,26.37h-.04c-.92,0-1.7.16-2.32.84h2.31c1.18,0,2.15.96,2.15,2.15s-.96,2.15-2.15,2.15h-3.46v.83h3.58c1.61-.06,2.86-1.37,2.86-2.98,0-1.7-1.26-2.98-2.93-2.99Z"/>
        <path class="cls-2" d="M57.89,29.36c0-.7-.57-1.27-1.27-1.27h-2.88c-.11.25-.21.53-.29.83h3.17c.24,0,.44.2.44.44s-.2.44-.44.44h-3.34c-.04.26-.07.54-.09.83h3.43c.7,0,1.27-.57,1.27-1.27Z"/>
        <path class="cls-2" d="M54.26,0H8.65C3.87,0,0,3.87,0,8.65v45.61c0,4.77,3.87,8.65,8.65,8.65h45.61c4.78,0,8.65-3.87,8.65-8.65V8.65c0-4.77-3.87-8.65-8.65-8.65ZM48.94,29.36c0-2.14,1.88-3.8,3.07-3.86-.74.16-2.19,1.7-2.19,3.87v13.05c0,.24-.2.44-.44.44s-.44-.2-.44-.44c0-.01,0-13.04,0-13.06h0ZM48.11,29.37v13.05c0,.7.57,1.27,1.27,1.27s1.27-.57,1.27-1.27c0-.01,0-13.04,0-13.06h0c0-2.14,1.88-3.8,3.07-3.86-.73.16-2.19,1.69-2.19,3.85,0,.03,0,13.03,0,13.06,0,1.19-.96,2.15-2.15,2.15s-2.15-.96-2.15-2.15v-13.06c0-2.14,1.88-3.8,3.07-3.86-.74.16-2.19,1.7-2.19,3.87ZM15.19,25.5c-.73.16-2.19,1.7-2.19,3.87v13.05c0,.24-.2.44-.44.44s-.44-.2-.44-.44v-13.06c0-2.14,1.88-3.8,3.07-3.86ZM11.28,29.37v13.05c0,.7.57,1.27,1.27,1.27s1.27-.57,1.27-1.27c0-.01,0-13.04,0-13.06h0c0-2.14,1.88-3.8,3.07-3.86-.73.16-2.19,1.69-2.19,3.85,0,.03,0,13.03,0,13.06,0,1.19-.96,2.15-2.15,2.15s-2.15-.96-2.15-2.15v-13.06c0-2.14,1.88-3.8,3.07-3.86-.74.16-2.19,1.7-2.19,3.87ZM56.76,33.22h-3.59l.02,3.38.05,5.81c0,1.04-.4,2.01-1.13,2.73-.73.73-1.7,1.13-2.73,1.13-2.09,0-3.84-1.63-3.92-3.71v-9.34h-2.35c-1.04,0-1.98-.42-2.68-1.09-.03.11-.06.22-.11.33-.61,1.46-1.98,2.37-3.56,2.37-.97,0-1.9-.36-2.62-1.02l-.23-.21c-.53-.44-1.2-.69-1.9-.69-1.65,0-2.98,1.34-2.98,2.98s1.34,2.98,2.98,2.98c.7,0,1.37-.24,1.91-.69l.23-.21c.71-.66,1.65-1.02,2.62-1.02,2.13,0,3.86,1.73,3.86,3.86,0,.89-.31,1.76-.87,2.44-.09.11-.32.34-.38.4-2,1.9-4.62,2.94-7.37,2.94-5.9,0-10.71-4.8-10.71-10.71,0-1.15.23-2.24.57-3.28-.56.36-1.22.59-1.93.61h-3.59l.02,3.38.05,5.81c0,1.04-.4,2.01-1.13,2.73-.73.73-1.7,1.13-2.73,1.13-2.08,0-3.84-1.63-3.92-3.71v-9.34h-2.35c-2.13,0-3.86-1.73-3.86-3.86s1.63-3.78,3.71-3.86h5.54s0,0,0,0c.04,0-1.1.73-1.5,1.46-.35.64-.61,1.47-.61,2.41v13.17c.06,1.61,1.37,2.86,2.98,2.86.8,0,1.55-.31,2.11-.87.56-.56.87-1.31.87-2.11-.06-7.13,0-9.66,0-11.42.13-3.23,1.04-5.51,4.27-5.51,2.19,0,3.8,1.7,3.84,3.79,1.96-2.48,4.96-4.11,8.36-4.11,2.8,0,5.43,1.07,7.44,3.02.48-1.52,1.84-2.63,3.52-2.69h5.54s0,0,0,0c.04,0-1.1.73-1.5,1.46-.35.64-.61,1.47-.61,2.41v13.17c.06,1.61,1.37,2.86,2.98,2.86.8,0,1.55-.31,2.11-.87.56-.56.87-1.31.87-2.11-.06-7.13,0-9.66,0-11.42.13-3.23,1.04-5.51,4.27-5.51,2.21,0,3.85,1.74,3.85,3.87s-1.63,3.78-3.71,3.86Z"/>
        <path class="cls-2" d="M42.99,26.38c-1.61.06-2.86,1.37-2.86,2.98s1.34,2.98,2.98,2.98h2.34v-.83h-2.34c-1.18,0-2.15-.96-2.15-2.15s.96-2.15,2.15-2.15h2.98c.2-.32.44-.6.69-.83h-3.79Z"/>
        <path class="cls-2" d="M41.84,29.36c0,.7.57,1.27,1.27,1.27h2.33v-.83h-2.33c-.24,0-.44-.2-.44-.44s.2-.44.44-.44h2.35c.03-.29.1-.57.2-.83h-2.55c-.7,0-1.27.57-1.27,1.27Z"/>
      </g>
      <g>
        <path class="cls-1" d="M50.16,18.29h.66c1.47,0,2.46-.94,2.46-2.2s-1-2.19-2.46-2.19h-2.51c-.38,0-.69.31-.69.69s.31.69.69.69h2.51c.61,0,.96.37.96.82s-.39.8-.96.8h-.66c-1.58,0-2.72,1.04-2.72,2.42v2.51h4.97c.38,0,.69-.31.69-.69s-.31-.69-.69-.69h-3.72v-1.14c0-.58.53-1.04,1.47-1.04Z"/>
        <path class="cls-1" d="M59.3,17.88h-.19v-2.83c0-.38-.31-.69-.69-.69s-.69.31-.69.69v2.86h-1.34c-.78,0-1.17-.37-1.17-1.09v-2.28c0-.38-.31-.69-.7-.69s-.69.31-.69.69v2.28c0,1.64.86,2.46,2.56,2.46h1.33v1.88c.01.38.32.69.7.69s.69-.31.69-.69v-1.88s.02,0,.02,0v-.03h.16c.38,0,.69-.31.69-.69s-.31-.69-.69-.69Z"/>
      </g>
      <g>
        <path class="cls-2" d="M75.56,21.54h-2.04c-.16,0-.27-.13-.27-.27v-1.55c0-.14.11-.27.27-.27h6.32c.16,0,.27.13.27.27v1.55c0,.14-.11.27-.27.27h-2.04v7.6c0,.14-.13.27-.27.27h-1.71c-.14,0-.27-.13-.27-.27v-7.6Z"/>
        <path class="cls-2" d="M82.96,19.72c0-.14.13-.27.27-.27h1.71c.14,0,.27.13.27.27v9.43c0,.14-.13.27-.27.27h-1.71c-.14,0-.27-.13-.27-.27v-9.43Z"/>
        <path class="cls-2" d="M90.07,19.53c.01-.13.14-.23.26-.23h.23c.07,0,.2.06.24.14l3.3,6.15h.03l3.3-6.15c.04-.09.17-.14.24-.14h.23c.11,0,.24.1.26.23l1.61,9.57c.03.18-.1.31-.27.31h-1.68c-.13,0-.26-.12-.27-.23l-.64-4.4h-.03l-2.39,4.61c-.04.09-.17.15-.24.15h-.26c-.09,0-.2-.07-.24-.15l-2.41-4.61h-.03l-.63,4.4c-.01.11-.13.23-.27.23h-1.68c-.17,0-.3-.13-.27-.31l1.61-9.57Z"/>
        <path class="cls-2" d="M103.01,19.72c0-.14.11-.27.27-.27h5.9c.16,0,.27.13.27.27v1.55c0,.14-.11.27-.27.27h-3.94v1.77h3.25c.14,0,.27.13.27.27v1.55c0,.16-.13.27-.27.27h-3.25v1.92h3.94c.16,0,.27.13.27.27v1.55c0,.14-.11.27-.27.27h-5.9c-.16,0-.27-.13-.27-.27v-9.43Z"/>
        <path class="cls-2" d="M121.75,19.31c1.42,0,2.48.44,3.45,1.32.13.11.13.28.01.4l-1.11,1.15c-.1.1-.26.1-.36,0-.53-.47-1.23-.72-1.92-.72-1.61,0-2.79,1.34-2.79,2.93s1.2,2.89,2.8,2.89c.67,0,1.4-.24,1.91-.68.1-.09.28-.09.37.01l1.11,1.18c.1.1.09.29-.01.39-.97.94-2.19,1.38-3.46,1.38-2.85,0-5.14-2.26-5.14-5.11s2.29-5.14,5.14-5.14Z"/>
        <path class="cls-2" d="M128.34,19.72c0-.14.11-.27.27-.27h4.26c1.71,0,3.1,1.38,3.1,3.08,0,1.31-.87,2.36-2.11,2.86l1.95,3.62c.1.18,0,.41-.24.41h-1.89c-.11,0-.2-.07-.23-.13l-1.89-3.77h-.98v3.63c0,.14-.13.27-.27.27h-1.69c-.16,0-.27-.13-.27-.27v-9.43ZM132.68,23.71c.58,0,1.08-.54,1.08-1.14s-.5-1.08-1.08-1.08h-2.11v2.22h2.11Z"/>
        <path class="cls-2" d="M139.3,19.72c0-.14.13-.27.27-.27h1.71c.14,0,.27.13.27.27v9.43c0,.14-.13.27-.27.27h-1.71c-.14,0-.27-.13-.27-.27v-9.43Z"/>
        <path class="cls-2" d="M146.7,21.54h-2.04c-.16,0-.27-.13-.27-.27v-1.55c0-.14.11-.27.27-.27h6.32c.16,0,.27.13.27.27v1.55c0,.14-.11.27-.27.27h-2.04v7.6c0,.14-.13.27-.27.27h-1.71c-.14,0-.27-.13-.27-.27v-7.6Z"/>
        <path class="cls-2" d="M154.11,19.72c0-.14.13-.27.27-.27h1.71c.14,0,.27.13.27.27v9.43c0,.14-.13.27-.27.27h-1.71c-.14,0-.27-.13-.27-.27v-9.43Z"/>
        <path class="cls-2" d="M164.64,19.31c1.42,0,2.48.44,3.45,1.32.13.11.13.28.01.4l-1.11,1.15c-.1.1-.26.1-.36,0-.53-.47-1.23-.72-1.92-.72-1.61,0-2.79,1.34-2.79,2.93s1.2,2.89,2.81,2.89c.67,0,1.4-.24,1.91-.68.1-.09.28-.09.37.01l1.11,1.18c.1.1.09.29-.01.39-.97.94-2.19,1.38-3.46,1.38-2.85,0-5.14-2.26-5.14-5.11s2.29-5.14,5.14-5.14Z"/>
        <path class="cls-2" d="M169.95,29.05l4.46-9.58c.04-.09.14-.16.24-.16h.14c.1,0,.2.07.24.16l4.46,9.58c.09.19-.03.37-.24.37h-1.58c-.26,0-.37-.09-.5-.36l-.51-1.12h-3.87l-.51,1.14c-.07.17-.23.34-.51.34h-1.57c-.21,0-.33-.18-.24-.37ZM175.8,26l-1.08-2.35h-.01l-1.07,2.35h2.17Z"/>
        <path class="cls-2" d="M182.07,19.72c0-.14.11-.27.27-.27h1.69c.14,0,.27.13.27.27v7.6h3.39c.16,0,.27.13.27.27v1.55c0,.14-.12.27-.27.27h-5.35c-.16,0-.27-.13-.27-.27v-9.43Z"/>
        <path class="cls-1" d="M75.81,37.87h-2.32c-.16,0-.27-.13-.27-.27v-.8c0-.14.11-.27.27-.27h6.12c.16,0,.27.13.27.27v.8c0,.14-.11.27-.27.27h-2.32v8.36c0,.14-.13.27-.27.27h-.94c-.14,0-.27-.13-.27-.27v-8.36Z"/>
        <path class="cls-1" d="M82.84,36.8c0-.14.11-.27.27-.27h3.87c1.71,0,3.1,1.35,3.1,3.05,0,1.31-.87,2.39-2.11,2.89l1.95,3.62c.1.18,0,.41-.24.41h-1.11c-.11,0-.2-.07-.23-.13l-1.89-3.77h-2.15v3.63c0,.14-.13.27-.27.27h-.93c-.16,0-.27-.13-.27-.27v-9.43ZM86.87,41.37c.93,0,1.74-.78,1.74-1.77,0-.93-.81-1.69-1.74-1.69h-2.53v3.46h2.53Z"/>
        <path class="cls-1" d="M92.39,46.13l4.37-9.59c.04-.09.17-.16.24-.16h.14c.07,0,.2.07.24.16l4.34,9.59c.09.18-.03.37-.24.37h-.9c-.17,0-.27-.09-.33-.21l-.88-1.95h-4.66c-.28.66-.58,1.3-.87,1.95-.04.1-.16.21-.33.21h-.9c-.21,0-.33-.18-.24-.37ZM98.84,43.11l-1.75-3.9h-.07l-1.74,3.9h3.56Z"/>
        <path class="cls-1" d="M104.57,36.64c0-.14.13-.26.27-.26h.36l6.18,7.15h.01v-6.74c0-.14.11-.27.27-.27h.91c.14,0,.27.13.27.27v9.59c0,.14-.13.26-.27.26h-.37l-6.18-7.35h-.01v6.94c0,.14-.11.27-.27.27h-.9c-.14,0-.27-.13-.27-.27v-9.59Z"/>
        <path class="cls-1" d="M116.39,45.06c.13-.18.24-.4.37-.58.13-.18.33-.24.48-.12.09.07,1.18.98,2.28.98.98,0,1.61-.6,1.61-1.32,0-.85-.74-1.4-2.15-1.98-1.45-.61-2.59-1.37-2.59-3.02,0-1.11.85-2.64,3.12-2.64,1.42,0,2.49.74,2.64.84.11.07.23.27.09.48-.11.17-.24.37-.36.54-.11.18-.3.27-.5.14-.1-.06-1.1-.71-1.92-.71-1.2,0-1.61.75-1.61,1.28,0,.81.63,1.31,1.81,1.8,1.65.67,3.06,1.45,3.06,3.19,0,1.48-1.32,2.69-3.18,2.69-1.74,0-2.83-.91-3.06-1.13-.13-.11-.23-.21-.09-.45Z"/>
        <path class="cls-1" d="M126.09,36.8c0-.14.11-.27.27-.27h3.25c1.75,0,3.19,1.42,3.19,3.15s-1.44,3.21-3.18,3.21h-2.07v3.35c0,.14-.13.27-.27.27h-.93c-.16,0-.27-.13-.27-.27v-9.43ZM129.52,41.49c.98,0,1.81-.8,1.81-1.82,0-.97-.83-1.71-1.81-1.71h-1.96v3.53h1.96Z"/>
        <path class="cls-1" d="M140.36,36.39c2.85,0,5.13,2.29,5.13,5.14s-2.28,5.11-5.13,5.11-5.11-2.26-5.11-5.11,2.26-5.14,5.11-5.14ZM140.36,45.22c2.04,0,3.7-1.65,3.7-3.69s-1.67-3.72-3.7-3.72-3.69,1.7-3.69,3.72,1.67,3.69,3.69,3.69Z"/>
        <path class="cls-1" d="M148.94,36.8c0-.14.11-.27.27-.27h3.87c1.71,0,3.1,1.35,3.1,3.05,0,1.31-.87,2.39-2.11,2.89l1.95,3.62c.1.18,0,.41-.24.41h-1.11c-.11,0-.2-.07-.23-.13l-1.89-3.77h-2.15v3.63c0,.14-.13.27-.27.27h-.93c-.16,0-.27-.13-.27-.27v-9.43ZM152.97,41.37c.93,0,1.74-.78,1.74-1.77,0-.93-.81-1.69-1.74-1.69h-2.53v3.46h2.53Z"/>
        <path class="cls-1" d="M161.19,37.87h-2.32c-.16,0-.27-.13-.27-.27v-.8c0-.14.11-.27.27-.27h6.12c.16,0,.27.13.27.27v.8c0,.14-.11.27-.27.27h-2.32v8.36c0,.14-.13.27-.27.27h-.94c-.14,0-.27-.13-.27-.27v-8.36Z"/>
      </g>
    </g>
  </g>
</svg>